<?xml version="1.0" encoding="utf-8"?>
<svg xmlns="http://www.w3.org/2000/svg" viewBox="0 0 48 48" width="32" height="32">
  <path fill="#455A64" d="M10 10H29V16H10zM9 43h30v-2c0-1.1-.9-2-2-2H11c-1.1 0-2 .9-2 2V43z" />
  <path fill="#455A64" d="M34.8 16.4L29.8 13 34.8 9.6 39 12.2 41 9 34.7 5 23.1 13 34.7 21 41 17 39 13.8zM16 11L9 11 18 39 25 39z" />
  <g>
    <path fill="#FFC107" d="M22.6 30.9c-.4-.6-1-.9-1.7-.9H19c-.7 0-1.3.3-1.7.9L12 39h16L22.6 30.9zM20 36c-1.1 0-2-.9-2-2s.9-2 2-2 2 .9 2 2S21.1 36 20 36zM13 7c-3.3 0-6 2.7-6 6s2.7 6 6 6 6-2.7 6-6S16.3 7 13 7zM13 15c-1.1 0-2-.9-2-2s.9-2 2-2 2 .9 2 2S14.1 15 13 15zM30 18h-3c-1.1 0-2-.9-2-2v-6c0-1.1.9-2 2-2h3V18z" />
  </g>
</svg>