<?xml version="1.0" encoding="utf-8"?>
<svg xmlns="http://www.w3.org/2000/svg" viewBox="0 0 48 48" width="32" height="32">
  <path fill="#42A5F5" d="M32.7,8.3l-1.4,1.4l4.7,4.7V19c0,0.6,0.4,1,1,1h2c0.6,0,1-0.4,1-1v-2.6c0-0.5-0.2-1-0.6-1.4L32.7,8.3z" />
  <path fill="#FFC107" d="M33,43H9V9c0-2.2,1.8-4,4-4h16c2.2,0,4,1.8,4,4V43z" />
  <path fill="#607D8B" d="M41.1 27c-1-1.8-2.1-3.6-2.1-7h-2c0 4 1.2 6.1 2.4 8 .9 1.5 1.6 2.9 1.6 5 0 1.1-.9 2-2 2s-2-.9-2-2v-5c0-1.1-.9-2-2-2h-2v2h2v5c0 2.2 1.8 4 4 4s4-1.8 4-4C43 30.4 42 28.7 41.1 27zM5 39H43V43H5z" />
  <path fill="#B2EBF2" d="M29,8H13c-0.6,0-1,0.4-1,1v10c0,0.6,0.4,1,1,1h16c0.6,0,1-0.4,1-1V9C30,8.4,29.6,8,29,8z" />
  <path fill="#B2EBF2" d="M29,8H13c-0.6,0-1,0.4-1,1v10c0,0.6,0.4,1,1,1h16c0.6,0,1-0.4,1-1V9C30,8.4,29.6,8,29,8z" />
  <path fill="#F44336" d="M22 20L26.7 14.3 19.7 20z" />
  <g>
    <path fill="#455A64" d="M14 13.8l-1.4-1.4c.3-.3.5-.5.8-.7l1.3 1.6C14.4 13.4 14.2 13.6 14 13.8zM28 13.8c-.2-.2-.4-.4-.7-.6l1.2-1.6c.3.2.6.5.8.7L28 13.8zM17 11.8L16.2 10c.3-.1.7-.3 1-.4l.6 1.9C17.5 11.6 17.3 11.7 17 11.8zM24.9 11.8c-.3-.1-.6-.2-.9-.3l.6-1.9c.3.1.7.2 1 .4L24.9 11.8zM20.5 11l-.1-2c.4 0 .7 0 1.1 0l-.1 2C21.1 11 20.8 11 20.5 11zM23 20h-4c0-1.1.9-2 2-2S23 18.9 23 20z" />
  </g>
</svg>