<?xml version="1.0" encoding="utf-8"?>
<svg xmlns="http://www.w3.org/2000/svg" width="32" height="32" viewBox="0 0 48 48">
  <path fill="#42A5F5" d="M17.636 2.08H30.363999999999997V45.921H17.636z" transform="rotate(-45.001 24 24)" />
  <path fill="#1565C0" d="M16.72 10.038H18.72V16.403H16.72z" transform="rotate(-134.999 17.72 13.22)" />
  <path fill="#1565C0" d="M31.78 24.513H33.781V28.049000000000003H31.78z" transform="rotate(45.001 32.781 26.281)" />
  <path fill="#1565C0" d="M14.75 7.482H16.75V11.018H14.75z" transform="rotate(45.001 15.75 9.25)" />
  <path fill="#1565C0" d="M37.81 30.542H39.81V34.078H37.81z" transform="rotate(45.001 38.81 32.31)" />
  <path fill="#1565C0" d="M20.75 13.482H22.75V17.018H20.75z" transform="rotate(45.001 21.75 15.25)" />
  <path fill="#1565C0" d="M31.598 29.281H37.963V31.281H31.598z" transform="rotate(-44.992 34.782 30.282)" />
  <path fill="#E57373" d="M42.583,9.067l-3.651-3.65c-0.555-0.556-1.459-0.556-2.015,0l-1.718,1.72l5.665,5.664l1.719-1.718C43.139,10.526,43.139,9.625,42.583,9.067" />
  <path fill="#FF9800" d="M4.466 21.525H40.473V29.537H4.466z" transform="rotate(-45.001 22.468 25.53)" />
  <path fill="#B0BEC5" d="M34.612 7.379H38.618V15.391H34.612z" transform="scale(-1) rotate(-45.02 -27.47 88.347)" />
  <path fill="#FFC107" d="M6.905 35.429L5 43 12.571 41.094z" />
  <path fill="#37474F" d="M5.965 39.172L5 43 8.827 42.035z" />
</svg>