<?xml version="1.0" encoding="utf-8"?>
<svg xmlns="http://www.w3.org/2000/svg" width="32" height="32" viewBox="0 0 48 48">
  <path fill="#3949AB" d="M32.615 12.257H36.615V17.256999999999998H32.615z" transform="rotate(38.956 34.616 14.757)" />
  <path fill="#3949AB" d="M21 9H27V13H21z" />
  <path fill="#EEE" d="M24 14.5A13.5 13.5 0 1 0 24 41.5A13.5 13.5 0 1 0 24 14.5Z" />
  <path fill="#263238" d="M22.634,30.118c1.173,0.763,2.741,0.422,3.492-0.765c0.754-1.186,0.412-2.762-0.764-3.529c-1.176-0.761-2.736-0.417-3.493,0.773C21.116,27.782,21.456,29.361,22.634,30.118" />
  <path fill="#263238" d="M14.778 22L24.199 26.084 22.38 28.943z" />
  <path fill="#9FA8DA" d="M23.545,28.691c0.392,0.251,0.913,0.137,1.161-0.261c0.252-0.393,0.139-0.92-0.255-1.171c-0.388-0.256-0.913-0.14-1.165,0.254C23.036,27.909,23.15,28.438,23.545,28.691" />
  <g>
    <path fill="#90A4AE" d="M24.991 13.06c-.374-.025-.745-.06-1.12-.06-.296 0-.586.031-.88.047V18h2V13.06zM24.991 38.06c-.374-.025-.745-.06-1.12-.06-.296 0-.586.031-.88.047V43h2V38.06zM9.051 29c-.025-.374-.06-.745-.06-1.12 0-.296.031-.586.047-.88h4.953v2H9.051zM34.051 29c-.025-.374-.06-.745-.06-1.12 0-.296.031-.586.047-.88h4.953v2H34.051zM32.27 15.522c-.313-.208-.617-.421-.943-.607-.257-.146-.523-.263-.787-.396l-2.456 4.301 1.736.992L32.27 15.522zM19.87 37.23c-.312-.207-.617-.421-.942-.606-.258-.147-.524-.264-.788-.396l-2.456 4.301 1.736.992L19.87 37.23zM32.23 33.857c.163-.337.317-.677.504-1.002.146-.257.317-.493.477-.741l4.302 2.457-.992 1.736L32.23 33.857zM37.27 21.078c-.174-.333-.337-.667-.532-.988-.154-.252-.332-.482-.498-.727l-4.229 2.578 1.041 1.708L37.27 21.078zM15.922 34.089c-.173-.332-.337-.667-.532-.986-.154-.254-.331-.484-.498-.728l-4.229 2.578 1.041 1.708L15.922 34.089zM15.361 15.762c.307-.215.605-.438.926-.633.253-.154.517-.278.776-.418l2.577 4.229-1.708 1.04L15.361 15.762zM28.373 37.11c.306-.216.604-.439.926-.634.252-.154.516-.278.775-.419l2.578 4.23-1.708 1.04L28.373 37.11z" />
  </g>
  <g>
    <path fill="#7986CB" d="M37.891 15.477c-.347.43-.977.497-1.406.149l-3.11-2.515c-.43-.348-.496-.977-.149-1.406l1.887-2.333c.348-.431.977-.497 1.406-.149l3.11 2.515c.43.348.497.977.149 1.406L37.891 15.477zM24 12c-8.835 0-16 7.165-16 16s7.165 16 16 16 16-7.165 16-16S32.835 12 24 12zM24 41c-7.181 0-13-5.819-13-13 0-7.18 5.819-13 13-13s13 5.82 13 13C37 35.181 31.181 41 24 41zM29 9c0 .553-.447 1-1 1h-8c-.553 0-1-.447-1-1V5c0-.553.447-1 1-1h8c.553 0 1 .447 1 1V9z" />
  </g>
</svg>