<svg xmlns="http://www.w3.org/2000/svg" viewBox="0 0 48 48"><path fill="#512da8" d="M23 4H25V15H23zM42 21c0-1.1.9-2 2-2s2 .9 2 2v14c0 1.1-.9 2-2 2s-2-.9-2-2V21zM2 21c0-1.1.9-2 2-2s2 .9 2 2v14c0 1.1-.9 2-2 2s-2-.9-2-2V21z"/><path fill="#7e57c2" d="M28 6c0 2.2-1.8 4-4 4-.5 0-1-.1-1.4-.2C21.1 9.2 21.1 6 21.1 6L24 2.5c0 0 1.9-.1 2.6.5C27.5 3.7 28 4.8 28 6zM43 30.1v9.3c0 3.4-14.7 4.6-18.4 4.6h-1.2C19.7 44 5 42.8 5 39.4v-9.3C5 20.7 13.4 13 23.4 13h1.2C34.6 13 43 20.7 43 30.1z"/><path fill="#5e35b1" d="M32.5 24A6.5 6.5 0 1 0 32.5 37 6.5 6.5 0 1 0 32.5 24zM15.5 24A6.5 6.5 0 1 0 15.5 37 6.5 6.5 0 1 0 15.5 24z"/><g><path fill="#fff9c4" d="M15.5 26A4.5 4.5 0 1 0 15.5 35 4.5 4.5 0 1 0 15.5 26zM32.5 26A4.5 4.5 0 1 0 32.5 35 4.5 4.5 0 1 0 32.5 26z"/></g><g><path fill="#5c6bc0" d="M15.5 28A2.5 2.5 0 1 0 15.5 33 2.5 2.5 0 1 0 15.5 28zM32.5 28A2.5 2.5 0 1 0 32.5 33 2.5 2.5 0 1 0 32.5 28z"/></g><g><path fill="#6e49b9" d="M22 7c0 1.2.5 2.2 1.3 2.9C21.4 9.6 20 8 20 6c0-2.2 1.8-4 4-4 1 0 2 .4 2.7 1.1C26.5 3 26.3 3 26 3 23.8 3 22 4.8 22 7zM5 30.1v9.3c0 1 1.2 1.8 3 2.4V31.7c0-10 7.9-18.2 17.5-18.7-.3 0-.6 0-.9 0h-1.2C13.4 13 5 20.7 5 30.1z"/></g></svg>