<?xml version="1.0" encoding="utf-8"?>
<svg xmlns="http://www.w3.org/2000/svg" viewBox="0 0 48 48" width="32" height="32">
  <path fill="#cfd8dc" d="M5,39V15h38v24c0,2.209-1.791,4-4,4H9C6.791,43,5,41.209,5,39" />
  <path fill="#f44336" d="M43,11v6H5v-6c0-2.209,1.791-4,4-4h30C41.209,7,43,8.791,43,11" />
  <path fill="#b71c1c" d="M36 11c0 1.656-1.343 3-3 3-1.657 0-3-1.344-3-3 0-1.656 1.343-3 3-3C34.657 8 36 9.344 36 11M18 11c0 1.656-1.343 3-3 3-1.657 0-3-1.344-3-3 0-1.656 1.343-3 3-3C16.657 8 18 9.344 18 11" />
  <path fill="#b0bec5" d="M33 4c-1.105 0-2 .897-2 2v5c0 1.104.895 2 2 2 1.103 0 2-.896 2-2V6C35 4.897 34.103 4 33 4M15 4c-1.105 0-2 .897-2 2v5c0 1.104.895 2 2 2 1.103 0 2-.896 2-2V6C17 4.897 16.103 4 15 4" />
  <path fill="#90a4ae" d="M13 21H17V25H13zM19 21H23V25H19zM25 21H29V25H25zM31 21H35V25H31zM13 27H17V31H13zM19 27H23V31H19zM25 27H29V31H25zM31 27H35V31H31zM13 33H17V37H13zM19 33H23V37H19zM25 33H29V37H25zM31 33H35V37H31z" />
  <path fill="#43a047" d="M48,38c0,5.523-4.478,10-10,10c-5.523,0-10-4.477-10-10s4.477-10,10-10C43.522,28,48,32.477,48,38" />
  <path fill="#fff" d="M36 32H40V44H36z" />
  <path fill="#fff" d="M32 36H44V40H32z" />
</svg>