<?xml version="1.0" encoding="utf-8"?>
<svg xmlns="http://www.w3.org/2000/svg" width="32" height="32" viewBox="0 0 48 48">
  <path fill="#6D4C41" d="M13 37c0-.553-.447-1-1-1H9c-.553 0-1 .447-1 1v5c0 .553.447 1 1 1h3c.553 0 1-.447 1-1V37zM40 37c0-.553-.447-1-1-1h-3c-.553 0-1 .447-1 1v5c0 .553.447 1 1 1h3c.553 0 1-.447 1-1V37z" />
  <path fill="#E3F2FD" d="M36,30H12c0,0,3.359-9,4-10s1.672-1,2-1c0.162,0,3.081,0,7,0c4.001,0,5,0,5,0c0.214,0,1.406-0.031,2,1C32.504,20.876,36,30,36,30z" />
  <path fill="#FF3D00" d="M38,29l-14-1l-14,1c-1.104,0-2,0.896-2,2v8c0,0.553,0.447,1,1,1h30c0.553,0,1-0.447,1-1v-8C40,29.896,39.104,29,38,29z" />
  <path fill="#FF3D00" d="M30,20c0.339,0,2.083,0.133,3.146,2.752c0.213,0.523,1.996,4.989,1.996,4.99L35.645,29H12.356l0.502-1.261c0.602-1.513,1.792-4.499,1.987-4.97C15.917,20.199,17.531,20,18,20h6h5.994H30 M30.003,18c0,0-0.001,0-0.003,0c0,0-1.999,0-6,0c-3.919,0-5.838,0-6,0c-0.328,0-3.333,0-5,4c-0.254,0.61-2,5-2,5H7c-0.553,0-1,0.447-1,1v2c0,0.553,0.447,1,1,1h3h1h26h1h3c0.553,0,1-0.447,1-1v-2c0-0.553-0.447-1-1-1h-4c0,0-1.787-4.476-2-5c-1.625-4-4.698-4-5-4c-0.005,0-0.006,0-0.006,0H30.003L30.003,18z" />
  <path fill="#37474F" d="M38,35c0,0.553-0.447,1-1,1H11c-0.553,0-1-0.447-1-1v-3c0-0.553,0.447-1,1-1h26c0.553,0,1,0.447,1,1V35z" />
  <path fill="#FFF176" d="M12.5 32A1.5 1.5 0 1 0 12.5 35 1.5 1.5 0 1 0 12.5 32zM35.5 32A1.5 1.5 0 1 0 35.5 35 1.5 1.5 0 1 0 35.5 32z" />
  <g>
    <path fill="#FFA000" d="M33 11L20 11 20 7 25 7 25 9 27 7 29 7 29 9 31 7 33 7 35 7.998 35 10z" />
    <path fill="#FFA000" d="M18,4c-2.762,0-5,2.238-5,5s2.238,5,5,5s5-2.238,5-5S20.762,4,18,4z M16,10c-0.553,0-1-0.447-1-1s0.447-1,1-1s1,0.447,1,1S16.553,10,16,10z" />
  </g>
  <path fill="#D67C05" d="M25,11V7h-2.422C22.847,7.613,23,8.287,23,9s-0.153,1.387-0.422,2H25z" />
</svg>