<?xml version="1.0" encoding="utf-8"?>
<svg xmlns="http://www.w3.org/2000/svg" viewBox="0 0 48 48" width="32" height="32">
  <path fill="#ff8f6b" d="M27,7h-6V5c0-1.657,1.343-3,3-3l0,0c1.657,0,3,1.343,3,3V7z" />
  <path fill="#ed6c47" d="M39,21c0-8.284-6.716-15-15-15S9,12.716,9,21c0,0.39,0,13,0,13h30C39,34,39,21.39,39,21z" />
  <path fill="#ff8f6b" d="M39,34H9l-3.875,1.55C4.445,35.822,4,36.48,4,37.211l0,0C4,38.199,4.801,39,5.789,39h36.422C43.199,39,44,38.199,44,37.211l0,0c0-0.731-0.445-1.389-1.125-1.661L39,34z" />
  <linearGradient id="JKKXov7_BW8C28AJJiX8Oa" x1="24" x2="24" y1="43.093" y2="38.956" gradientUnits="userSpaceOnUse">
    <stop offset="0" stop-color="#ed6c47" />
    <stop offset="1" stop-color="#c9512e" />
  </linearGradient>
  <path fill="url(#JKKXov7_BW8C28AJJiX8Oa)" d="M28,39c0,2.209-1.791,4-4,4s-4-1.791-4-4H28z" />
</svg>