<?xml version="1.0" encoding="utf-8"?>
<svg xmlns="http://www.w3.org/2000/svg" viewBox="0 0 48 48" width="32" height="32">
  <path fill="#a5d6a7" d="M4 5H44V43H4z" />
  <path fill="#388e3c" d="M4,27h40V5H4V27z M42,7v18H6V7H42z" />
  <path fill="#388e3c" d="M12 14A2 2 0 1 0 12 18 2 2 0 1 0 12 14zM36 14A2 2 0 1 0 36 18 2 2 0 1 0 36 14zM24 9A7 7 0 1 0 24 23 7 7 0 1 0 24 9zM38.779 6C38.3 6.532 38 7.228 38 8c0 1.657 1.343 3 3 3 .772 0 1.468-.3 2-.779V6H38.779zM9.221 6H5v4.221C5.532 10.7 6.228 11 7 11c1.657 0 3-1.343 3-3C10 7.228 9.7 6.532 9.221 6zM9.221 26C9.7 25.468 10 24.772 10 24c0-1.657-1.343-3-3-3-.772 0-1.468.3-2 .779V26H9.221zM43 26v-4.221C42.468 21.3 41.772 21 41 21c-1.657 0-3 1.343-3 3 0 .772.3 1.468.779 2H43zM4 29H44V31H4zM4 33H44V35H4zM4 37H44V39H4zM4 41H44V43H4z" />
</svg>