<?xml version="1.0" encoding="utf-8"?>
<!-- Generator: Adobe Illustrator 24.1.3, SVG Export Plug-In . SVG Version: 6.00 Build 0)  -->
<svg version="1.1" id="Layer_1" xmlns="http://www.w3.org/2000/svg" xmlns:xlink="http://www.w3.org/1999/xlink" x="0px" y="0px"
	 viewBox="0 0 32 32" style="enable-background:new 0 0 32 32;" xml:space="preserve">
<style type="text/css">
	.Black{fill:#737374;}
	.Yellow{fill:#FCB01B;}
	.Green{fill:#129C49;}
	.Blue{fill:#387CB7;}
	.Red{fill:#D02127;}
	.White{fill:#FFFFFF;}
	.st0{opacity:0.5;}
	.st1{opacity:0.75;}
	.st2{opacity:0.25;}
	.st3{display:none;fill:#737374;}
</style>
<path class="Black" d="M21.5,28H20H6V4h14v5c0,0.6,0.4,1,1,1h5v13.5l2,2V9l-7-7H5C4.4,2,4,2.4,4,3v26c0,0.6,0.4,1,1,1h18.5L21.5,28z
	"/>
<path class="Blue" d="M18,13.9c3.3,0,6,2.7,6,6c0,1.2-0.4,2.3-1,3.3l4.6,4.6c0.5,0.5,0.5,1.3,0,1.7c-0.5,0.5-1.3,0.5-1.7,0L21.3,25
	c-0.9,0.6-2.1,1-3.3,1c-3.3,0-6-2.7-6-6C11.9,16.6,14.6,13.9,18,13.9z M18,24c2.2,0,4-1.8,4-4s-1.8-4-4-4s-4,1.8-4,4S15.8,24,18,24z
	"/>
</svg>
