<?xml version="1.0" encoding="UTF-8"?>
<svg xmlns="http://www.w3.org/2000/svg" xmlns:xlink="http://www.w3.org/1999/xlink" width="32px" height="32px" viewBox="0 0 32 32" version="1.1">
<g id="surface1">
<path style=" stroke:none;fill-rule:nonzero;fill:rgb(92.54902%,92.54902%,92.54902%);fill-opacity:1;" d="M 3.632812 0.359375 C 3.726562 0.359375 3.824219 0.359375 3.917969 0.359375 C 4.179688 0.359375 4.441406 0.359375 4.703125 0.359375 C 4.988281 0.359375 5.269531 0.359375 5.554688 0.359375 C 6.109375 0.359375 6.660156 0.359375 7.214844 0.359375 C 7.664062 0.359375 8.117188 0.359375 8.566406 0.359375 C 8.664062 0.359375 8.664062 0.359375 8.761719 0.359375 C 8.890625 0.359375 9.019531 0.359375 9.152344 0.359375 C 10.371094 0.359375 11.59375 0.359375 12.816406 0.359375 C 13.863281 0.359375 14.910156 0.359375 15.957031 0.359375 C 17.171875 0.359375 18.390625 0.359375 19.605469 0.359375 C 19.738281 0.359375 19.867188 0.359375 19.996094 0.359375 C 20.058594 0.359375 20.125 0.359375 20.191406 0.359375 C 20.640625 0.359375 21.089844 0.359375 21.539062 0.359375 C 22.085938 0.359375 22.632812 0.359375 23.183594 0.359375 C 23.460938 0.359375 23.742188 0.359375 24.019531 0.359375 C 24.277344 0.359375 24.535156 0.359375 24.789062 0.359375 C 24.882812 0.359375 24.972656 0.359375 25.066406 0.359375 C 25.949219 0.355469 26.699219 0.449219 27.363281 1.074219 C 27.917969 1.664062 28.082031 2.351562 28.078125 3.144531 C 28.078125 3.226562 28.078125 3.226562 28.078125 3.3125 C 28.078125 3.496094 28.078125 3.679688 28.078125 3.867188 C 28.078125 4 28.078125 4.132812 28.078125 4.265625 C 28.078125 4.625 28.074219 4.984375 28.074219 5.34375 C 28.074219 5.722656 28.074219 6.097656 28.074219 6.476562 C 28.074219 7.1875 28.074219 7.902344 28.070312 8.617188 C 28.070312 9.429688 28.070312 10.238281 28.070312 11.050781 C 28.066406 12.722656 28.066406 14.390625 28.0625 16.0625 C 28.183594 16.0625 28.183594 16.0625 28.308594 16.058594 C 28.414062 16.058594 28.519531 16.058594 28.628906 16.054688 C 28.679688 16.054688 28.734375 16.054688 28.789062 16.054688 C 29.667969 16.046875 30.425781 16.40625 31.070312 16.996094 C 31.628906 17.601562 31.945312 18.363281 31.945312 19.179688 C 31.945312 19.222656 31.945312 19.265625 31.949219 19.308594 C 31.949219 19.453125 31.949219 19.59375 31.949219 19.734375 C 31.949219 19.835938 31.949219 19.941406 31.949219 20.042969 C 31.949219 20.375 31.953125 20.710938 31.953125 21.046875 C 31.953125 21.164062 31.953125 21.277344 31.953125 21.394531 C 31.953125 21.9375 31.957031 22.480469 31.957031 23.023438 C 31.957031 23.648438 31.957031 24.277344 31.960938 24.902344 C 31.960938 25.386719 31.964844 25.871094 31.964844 26.355469 C 31.964844 26.644531 31.964844 26.933594 31.964844 27.222656 C 31.96875 27.496094 31.96875 27.765625 31.96875 28.039062 C 31.96875 28.140625 31.96875 28.238281 31.96875 28.335938 C 31.976562 29.375 31.773438 30.261719 31.046875 31.046875 C 30.242188 31.792969 29.347656 31.976562 28.28125 31.96875 C 28.179688 31.96875 28.078125 31.96875 27.976562 31.972656 C 27.707031 31.972656 27.433594 31.972656 27.160156 31.972656 C 26.875 31.96875 26.589844 31.972656 26.304688 31.972656 C 25.824219 31.972656 25.34375 31.972656 24.863281 31.96875 C 24.308594 31.96875 23.757812 31.96875 23.203125 31.96875 C 22.726562 31.972656 22.25 31.972656 21.773438 31.972656 C 21.488281 31.972656 21.203125 31.972656 20.921875 31.972656 C 20.652344 31.972656 20.386719 31.972656 20.117188 31.96875 C 20.019531 31.96875 19.921875 31.96875 19.828125 31.96875 C 18.789062 31.976562 17.945312 31.734375 17.171875 31.019531 C 16.429688 30.230469 16.28125 29.359375 16.292969 28.316406 C 16.292969 28.222656 16.292969 28.128906 16.296875 28.03125 C 16.296875 27.785156 16.296875 27.542969 16.300781 27.296875 C 16.300781 27.042969 16.300781 26.792969 16.304688 26.539062 C 16.304688 26.046875 16.308594 25.554688 16.3125 25.0625 C 16.242188 25.0625 16.171875 25.0625 16.101562 25.0625 C 14.410156 25.066406 12.714844 25.070312 11.023438 25.070312 C 10.203125 25.074219 9.382812 25.074219 8.566406 25.078125 C 7.851562 25.078125 7.136719 25.078125 6.421875 25.082031 C 6.046875 25.082031 5.667969 25.082031 5.289062 25.082031 C 4.933594 25.082031 4.578125 25.085938 4.222656 25.082031 C 4.089844 25.082031 3.960938 25.085938 3.832031 25.085938 C 2.777344 25.089844 1.953125 25.035156 1.140625 24.296875 C 0.5625 23.691406 0.480469 22.964844 0.484375 22.171875 C 0.484375 22.085938 0.484375 22 0.484375 21.917969 C 0.480469 21.683594 0.484375 21.453125 0.484375 21.21875 C 0.484375 20.96875 0.480469 20.71875 0.480469 20.46875 C 0.480469 19.976562 0.480469 19.484375 0.480469 18.996094 C 0.480469 18.59375 0.480469 18.195312 0.480469 17.796875 C 0.480469 17.742188 0.480469 17.683594 0.480469 17.625 C 0.480469 17.507812 0.480469 17.394531 0.480469 17.277344 C 0.480469 16.195312 0.480469 15.113281 0.480469 14.03125 C 0.480469 13.042969 0.480469 12.050781 0.480469 11.0625 C 0.476562 10.042969 0.476562 9.027344 0.476562 8.011719 C 0.476562 7.441406 0.476562 6.867188 0.476562 6.296875 C 0.476562 5.8125 0.476562 5.328125 0.476562 4.839844 C 0.476562 4.59375 0.476562 4.34375 0.476562 4.097656 C 0.476562 3.871094 0.476562 3.644531 0.476562 3.414062 C 0.476562 3.296875 0.476562 3.175781 0.476562 3.054688 C 0.480469 2.222656 0.703125 1.628906 1.265625 1.015625 C 1.929688 0.386719 2.765625 0.355469 3.632812 0.359375 Z M 3.632812 0.359375 "/>
<path style=" stroke:none;fill-rule:nonzero;fill:rgb(82.352942%,12.156863%,6.666667%);fill-opacity:1;" d="M 3.652344 0.351562 C 3.75 0.351562 3.847656 0.351562 3.941406 0.351562 C 4.203125 0.351562 4.464844 0.351562 4.726562 0.351562 C 5.007812 0.351562 5.292969 0.351562 5.574219 0.351562 C 6.128906 0.351562 6.683594 0.351562 7.234375 0.351562 C 7.878906 0.351562 8.523438 0.351562 9.167969 0.351562 C 10.320312 0.351562 11.46875 0.351562 12.621094 0.355469 C 13.734375 0.355469 14.851562 0.355469 15.96875 0.355469 C 17.183594 0.355469 18.398438 0.355469 19.613281 0.355469 C 19.742188 0.355469 19.875 0.355469 20.003906 0.355469 C 20.066406 0.355469 20.132812 0.355469 20.195312 0.355469 C 20.644531 0.355469 21.09375 0.355469 21.542969 0.355469 C 22.089844 0.355469 22.640625 0.355469 23.1875 0.355469 C 23.464844 0.359375 23.746094 0.359375 24.023438 0.359375 C 24.28125 0.355469 24.535156 0.359375 24.789062 0.359375 C 24.882812 0.359375 24.976562 0.359375 25.066406 0.359375 C 25.949219 0.355469 26.699219 0.449219 27.363281 1.074219 C 28.640625 2.421875 28 4.503906 28 6.1875 C 18.945312 6.1875 9.890625 6.1875 0.5625 6.1875 C 0.5625 1.765625 0.5625 1.765625 1.222656 1.078125 C 1.933594 0.414062 2.710938 0.347656 3.652344 0.351562 Z M 3.652344 0.351562 "/>
<path style=" stroke:none;fill-rule:nonzero;fill:rgb(92.54902%,92.54902%,92.941177%);fill-opacity:1;" d="M 27.464844 19.792969 C 28.578125 20.714844 29.304688 21.925781 29.5 23.375 C 29.628906 24.894531 29.167969 26.3125 28.226562 27.5 C 27.292969 28.578125 25.980469 29.25 24.5625 29.375 C 23.003906 29.472656 21.632812 28.964844 20.453125 27.957031 C 19.8125 27.347656 19.398438 26.625 19.0625 25.8125 C 19.042969 25.761719 19.019531 25.710938 19 25.660156 C 18.558594 24.480469 18.667969 23.011719 19.1875 21.875 C 19.441406 21.34375 19.730469 20.875 20.125 20.4375 C 20.171875 20.386719 20.21875 20.332031 20.265625 20.28125 C 20.886719 19.617188 21.648438 19.183594 22.5 18.875 C 22.558594 18.855469 22.617188 18.832031 22.679688 18.8125 C 24.296875 18.339844 26.15625 18.753906 27.464844 19.792969 Z M 27.464844 19.792969 "/>
<path style=" stroke:none;fill-rule:nonzero;fill:rgb(10.196079%,26.666668%,38.82353%);fill-opacity:1;" d="M 28.84375 18.605469 C 29.695312 19.355469 30.285156 20.222656 30.75 21.25 C 30.777344 21.304688 30.800781 21.355469 30.828125 21.414062 C 31.511719 22.957031 31.472656 24.882812 30.890625 26.445312 C 30.125 28.351562 28.765625 29.808594 26.875 30.625 C 26.566406 30.75 26.257812 30.847656 25.9375 30.9375 C 25.871094 30.957031 25.804688 30.976562 25.734375 31 C 24.648438 31.269531 23.324219 31.253906 22.25 30.9375 C 22.1875 30.921875 22.125 30.902344 22.0625 30.886719 C 20.914062 30.542969 19.917969 29.890625 19.0625 29.0625 C 19.015625 29.019531 18.96875 28.972656 18.917969 28.929688 C 17.753906 27.820312 17.03125 26.074219 16.984375 24.476562 C 16.953125 22.28125 17.574219 20.476562 19.125 18.875 C 21.707031 16.242188 26.101562 16.234375 28.84375 18.605469 Z M 20.019531 20.527344 C 19.394531 21.273438 18.984375 22.171875 18.8125 23.125 C 18.800781 23.191406 18.800781 23.191406 18.789062 23.261719 C 18.582031 24.605469 18.976562 26.070312 19.761719 27.167969 C 20.628906 28.300781 21.882812 29.140625 23.3125 29.359375 C 24.910156 29.507812 26.367188 29.097656 27.625 28.101562 C 28.695312 27.175781 29.378906 25.847656 29.5 24.4375 C 29.589844 22.976562 29.164062 21.640625 28.21875 20.511719 C 27.339844 19.523438 26.089844 18.773438 24.75 18.675781 C 22.878906 18.601562 21.300781 19.09375 20.019531 20.527344 Z M 20.019531 20.527344 "/>
<path style=" stroke:none;fill-rule:nonzero;fill:rgb(82.352942%,82.352942%,82.352942%);fill-opacity:1;" d="M 19.925781 16.410156 C 20.027344 16.410156 20.125 16.410156 20.226562 16.410156 C 20.496094 16.410156 20.765625 16.40625 21.035156 16.40625 C 21.257812 16.410156 21.484375 16.40625 21.710938 16.40625 C 22.242188 16.40625 22.773438 16.40625 23.308594 16.40625 C 23.855469 16.40625 24.402344 16.40625 24.949219 16.402344 C 25.421875 16.402344 25.894531 16.398438 26.363281 16.402344 C 26.644531 16.402344 26.925781 16.398438 27.207031 16.398438 C 27.472656 16.398438 27.738281 16.398438 28 16.398438 C 28.097656 16.398438 28.195312 16.398438 28.289062 16.398438 C 29.277344 16.390625 30.085938 16.601562 30.808594 17.304688 C 31.28125 17.804688 31.578125 18.4375 31.578125 19.128906 C 31.578125 19.191406 31.578125 19.191406 31.578125 19.257812 C 31.578125 19.402344 31.578125 19.542969 31.578125 19.6875 C 31.578125 19.789062 31.578125 19.890625 31.578125 19.992188 C 31.578125 20.273438 31.578125 20.550781 31.578125 20.828125 C 31.578125 21.121094 31.578125 21.414062 31.578125 21.703125 C 31.578125 22.195312 31.578125 22.683594 31.578125 23.175781 C 31.578125 23.742188 31.578125 24.304688 31.578125 24.871094 C 31.578125 25.359375 31.578125 25.84375 31.578125 26.332031 C 31.578125 26.621094 31.578125 26.910156 31.578125 27.203125 C 31.578125 27.472656 31.578125 27.746094 31.578125 28.019531 C 31.578125 28.121094 31.578125 28.21875 31.578125 28.320312 C 31.582031 29.269531 31.445312 30.054688 30.773438 30.773438 C 30.257812 31.257812 29.589844 31.578125 28.875 31.578125 C 28.8125 31.582031 28.8125 31.582031 28.746094 31.582031 C 28.605469 31.582031 28.464844 31.582031 28.324219 31.582031 C 28.222656 31.582031 28.121094 31.582031 28.019531 31.582031 C 27.742188 31.585938 27.46875 31.585938 27.191406 31.585938 C 27.019531 31.585938 26.847656 31.585938 26.675781 31.585938 C 26.070312 31.589844 25.46875 31.589844 24.867188 31.589844 C 24.304688 31.589844 23.746094 31.589844 23.183594 31.59375 C 22.703125 31.597656 22.21875 31.597656 21.738281 31.597656 C 21.449219 31.597656 21.164062 31.597656 20.875 31.597656 C 20.605469 31.601562 20.335938 31.601562 20.0625 31.601562 C 19.964844 31.601562 19.867188 31.601562 19.765625 31.601562 C 18.933594 31.609375 18.265625 31.433594 17.625 30.875 C 17.566406 30.828125 17.566406 30.828125 17.511719 30.78125 C 17.007812 30.328125 16.714844 29.648438 16.675781 28.976562 C 16.671875 28.710938 16.667969 28.449219 16.671875 28.183594 C 16.671875 28.082031 16.667969 27.980469 16.667969 27.875 C 16.667969 27.601562 16.667969 27.324219 16.667969 27.050781 C 16.667969 26.820312 16.667969 26.589844 16.667969 26.359375 C 16.667969 25.8125 16.667969 25.269531 16.667969 24.726562 C 16.667969 24.164062 16.667969 23.605469 16.667969 23.042969 C 16.664062 22.5625 16.664062 22.078125 16.664062 21.597656 C 16.664062 21.308594 16.664062 21.019531 16.664062 20.734375 C 16.664062 20.464844 16.664062 20.191406 16.664062 19.921875 C 16.664062 19.824219 16.664062 19.722656 16.664062 19.625 C 16.660156 18.683594 16.820312 17.9375 17.484375 17.234375 C 18.207031 16.550781 18.96875 16.410156 19.925781 16.410156 Z M 18.710938 19.300781 C 17.832031 20.3125 17.347656 21.453125 17.0625 22.75 C 17.050781 22.796875 17.039062 22.847656 17.027344 22.894531 C 16.871094 23.8125 16.917969 24.921875 17.1875 25.8125 C 17.199219 25.855469 17.214844 25.902344 17.226562 25.945312 C 17.742188 27.710938 18.867188 29.292969 20.496094 30.191406 C 22.152344 31.078125 24.089844 31.492188 25.9375 30.9375 C 25.980469 30.925781 26.023438 30.914062 26.070312 30.898438 C 27.84375 30.386719 29.40625 29.261719 30.316406 27.628906 C 30.472656 27.34375 30.613281 27.046875 30.75 26.75 C 30.796875 26.65625 30.796875 26.65625 30.839844 26.558594 C 31.507812 25.027344 31.46875 23.160156 30.90625 21.605469 C 30.140625 19.730469 28.804688 18.226562 26.933594 17.410156 C 24.007812 16.203125 20.832031 17.03125 18.710938 19.300781 Z M 18.710938 19.300781 "/>
<path style=" stroke:none;fill-rule:nonzero;fill:rgb(13.725491%,29.019609%,40.784314%);fill-opacity:1;" d="M 20.167969 16.042969 C 20.265625 16.042969 20.363281 16.042969 20.464844 16.042969 C 20.726562 16.042969 20.992188 16.042969 21.257812 16.042969 C 21.421875 16.042969 21.585938 16.042969 21.753906 16.039062 C 22.332031 16.039062 22.910156 16.039062 23.488281 16.039062 C 24.027344 16.039062 24.566406 16.039062 25.101562 16.035156 C 25.566406 16.035156 26.027344 16.035156 26.492188 16.035156 C 26.769531 16.035156 27.042969 16.035156 27.320312 16.03125 C 27.578125 16.03125 27.839844 16.03125 28.097656 16.03125 C 28.195312 16.03125 28.289062 16.03125 28.382812 16.03125 C 29.417969 16.023438 30.296875 16.289062 31.070312 16.996094 C 31.628906 17.601562 31.945312 18.363281 31.945312 19.179688 C 31.945312 19.222656 31.945312 19.265625 31.949219 19.308594 C 31.949219 19.453125 31.949219 19.59375 31.949219 19.734375 C 31.949219 19.835938 31.949219 19.941406 31.949219 20.042969 C 31.949219 20.375 31.953125 20.710938 31.953125 21.046875 C 31.953125 21.164062 31.953125 21.277344 31.953125 21.394531 C 31.953125 21.9375 31.957031 22.480469 31.957031 23.023438 C 31.957031 23.648438 31.957031 24.277344 31.960938 24.902344 C 31.960938 25.386719 31.964844 25.871094 31.964844 26.355469 C 31.964844 26.644531 31.964844 26.933594 31.964844 27.222656 C 31.96875 27.496094 31.96875 27.765625 31.96875 28.039062 C 31.96875 28.140625 31.96875 28.238281 31.96875 28.335938 C 31.976562 29.375 31.773438 30.261719 31.046875 31.046875 C 30.242188 31.792969 29.347656 31.976562 28.28125 31.96875 C 28.179688 31.96875 28.078125 31.96875 27.976562 31.972656 C 27.707031 31.972656 27.433594 31.972656 27.160156 31.972656 C 26.875 31.96875 26.589844 31.972656 26.304688 31.972656 C 25.824219 31.972656 25.34375 31.972656 24.863281 31.96875 C 24.308594 31.96875 23.757812 31.96875 23.203125 31.96875 C 22.726562 31.972656 22.25 31.972656 21.773438 31.972656 C 21.488281 31.972656 21.203125 31.972656 20.921875 31.972656 C 20.652344 31.972656 20.386719 31.972656 20.117188 31.96875 C 20.019531 31.96875 19.921875 31.96875 19.828125 31.96875 C 18.789062 31.976562 17.945312 31.734375 17.171875 31.019531 C 16.417969 30.21875 16.285156 29.332031 16.292969 28.277344 C 16.292969 28.171875 16.292969 28.070312 16.292969 27.96875 C 16.292969 27.691406 16.292969 27.414062 16.292969 27.136719 C 16.292969 26.84375 16.292969 26.554688 16.296875 26.261719 C 16.296875 25.714844 16.296875 25.164062 16.300781 24.613281 C 16.300781 23.988281 16.300781 23.363281 16.304688 22.734375 C 16.304688 21.449219 16.308594 20.160156 16.3125 18.875 C 16.25 18.855469 16.1875 18.832031 16.125 18.8125 C 16.125 18.195312 16.125 17.574219 16.125 16.9375 C 16.320312 16.9375 16.511719 16.933594 16.710938 16.933594 C 17.269531 16.917969 17.570312 16.804688 18 16.4375 C 18.679688 16.050781 19.410156 16.042969 20.167969 16.042969 Z M 17.175781 17.59375 C 16.820312 18.082031 16.679688 18.582031 16.679688 19.179688 C 16.679688 19.21875 16.679688 19.261719 16.675781 19.304688 C 16.675781 19.449219 16.675781 19.589844 16.675781 19.730469 C 16.675781 19.832031 16.675781 19.933594 16.675781 20.035156 C 16.675781 20.367188 16.671875 20.703125 16.671875 21.035156 C 16.671875 21.148438 16.671875 21.265625 16.671875 21.378906 C 16.671875 21.921875 16.667969 22.460938 16.667969 23 C 16.667969 23.625 16.667969 24.246094 16.664062 24.871094 C 16.664062 25.351562 16.660156 25.832031 16.660156 26.316406 C 16.660156 26.601562 16.660156 26.890625 16.660156 27.179688 C 16.65625 27.449219 16.65625 27.71875 16.65625 27.992188 C 16.65625 28.089844 16.65625 28.1875 16.65625 28.289062 C 16.648438 29.285156 16.855469 30.078125 17.542969 30.824219 C 18.027344 31.289062 18.640625 31.578125 19.3125 31.578125 C 19.351562 31.578125 19.394531 31.582031 19.4375 31.582031 C 19.582031 31.582031 19.722656 31.582031 19.863281 31.582031 C 19.964844 31.582031 20.066406 31.582031 20.167969 31.582031 C 20.441406 31.585938 20.71875 31.585938 20.992188 31.585938 C 21.167969 31.585938 21.339844 31.585938 21.511719 31.585938 C 22.113281 31.589844 22.714844 31.589844 23.316406 31.589844 C 23.878906 31.589844 24.4375 31.589844 24.996094 31.59375 C 25.480469 31.597656 25.960938 31.597656 26.441406 31.597656 C 26.730469 31.597656 27.019531 31.597656 27.304688 31.597656 C 27.574219 31.601562 27.847656 31.601562 28.117188 31.601562 C 28.214844 31.601562 28.3125 31.601562 28.414062 31.601562 C 29.253906 31.609375 29.980469 31.449219 30.625 30.875 C 30.679688 30.832031 30.679688 30.832031 30.738281 30.785156 C 31.1875 30.390625 31.484375 29.777344 31.5625 29.1875 C 31.570312 29.042969 31.570312 28.894531 31.570312 28.75 C 31.574219 28.707031 31.574219 28.664062 31.574219 28.621094 C 31.574219 28.476562 31.574219 28.335938 31.574219 28.195312 C 31.574219 28.089844 31.574219 27.988281 31.574219 27.886719 C 31.578125 27.550781 31.578125 27.21875 31.578125 26.882812 C 31.578125 26.765625 31.582031 26.652344 31.582031 26.535156 C 31.582031 26.054688 31.582031 25.574219 31.582031 25.089844 C 31.585938 24.402344 31.585938 23.714844 31.589844 23.027344 C 31.59375 22.542969 31.59375 22.058594 31.59375 21.574219 C 31.59375 21.285156 31.59375 20.996094 31.597656 20.707031 C 31.597656 20.433594 31.601562 20.160156 31.597656 19.890625 C 31.597656 19.789062 31.597656 19.691406 31.601562 19.589844 C 31.609375 18.710938 31.433594 17.96875 30.8125 17.3125 C 30.191406 16.6875 29.476562 16.421875 28.601562 16.410156 C 28.464844 16.410156 28.324219 16.410156 28.1875 16.410156 C 28.089844 16.410156 27.988281 16.410156 27.890625 16.410156 C 27.621094 16.410156 27.351562 16.40625 27.082031 16.40625 C 26.855469 16.410156 26.628906 16.40625 26.402344 16.40625 C 25.871094 16.40625 25.339844 16.40625 24.804688 16.40625 C 24.257812 16.40625 23.710938 16.40625 23.160156 16.402344 C 22.691406 16.402344 22.21875 16.398438 21.746094 16.402344 C 21.464844 16.402344 21.183594 16.398438 20.902344 16.398438 C 20.636719 16.398438 20.375 16.398438 20.109375 16.398438 C 20.011719 16.398438 19.914062 16.398438 19.820312 16.398438 C 18.703125 16.386719 17.898438 16.75 17.175781 17.59375 Z M 17.175781 17.59375 "/>
<path style=" stroke:none;fill-rule:nonzero;fill:rgb(10.588235%,26.666668%,38.82353%);fill-opacity:1;" d="M 24.097656 20.105469 C 24.144531 20.105469 24.195312 20.105469 24.246094 20.105469 C 24.609375 20.109375 24.609375 20.109375 24.75 20.25 C 24.757812 20.390625 24.757812 20.390625 24.75 20.566406 C 24.75 20.632812 24.746094 20.699219 24.742188 20.765625 C 24.738281 20.839844 24.738281 20.910156 24.734375 20.984375 C 24.730469 21.136719 24.726562 21.289062 24.726562 21.441406 C 24.722656 21.683594 24.714844 21.925781 24.703125 22.164062 C 24.632812 23.039062 24.632812 23.039062 24.921875 23.835938 C 25.195312 24.089844 25.511719 24.261719 25.847656 24.421875 C 26.0625 24.53125 26.253906 24.664062 26.453125 24.804688 C 26.648438 24.941406 26.847656 25.074219 27.046875 25.207031 C 27.144531 25.273438 27.144531 25.273438 27.242188 25.339844 C 27.300781 25.378906 27.359375 25.417969 27.417969 25.457031 C 27.542969 25.546875 27.652344 25.628906 27.75 25.75 C 27.738281 26.019531 27.613281 26.203125 27.46875 26.421875 C 27.410156 26.511719 27.410156 26.511719 27.351562 26.605469 C 27.25 26.75 27.25 26.75 27.1875 26.8125 C 26.773438 26.800781 26.519531 26.625 26.1875 26.394531 C 26.136719 26.359375 26.082031 26.324219 26.027344 26.285156 C 25.859375 26.171875 25.691406 26.054688 25.523438 25.9375 C 25.410156 25.859375 25.300781 25.785156 25.1875 25.707031 C 24.921875 25.527344 24.65625 25.34375 24.394531 25.160156 C 24.261719 25.070312 24.125 24.976562 23.992188 24.886719 C 23.953125 24.859375 23.914062 24.835938 23.875 24.808594 C 23.777344 24.738281 23.675781 24.671875 23.578125 24.605469 C 23.4375 24.5 23.4375 24.5 23.375 24.375 C 23.367188 24.246094 23.367188 24.117188 23.363281 23.992188 C 23.363281 23.910156 23.363281 23.828125 23.363281 23.746094 C 23.363281 23.65625 23.363281 23.570312 23.363281 23.480469 C 23.363281 23.390625 23.363281 23.300781 23.359375 23.210938 C 23.359375 23.019531 23.359375 22.828125 23.359375 22.640625 C 23.359375 22.398438 23.359375 22.152344 23.355469 21.910156 C 23.355469 21.722656 23.355469 21.535156 23.355469 21.351562 C 23.355469 21.261719 23.355469 21.171875 23.351562 21.082031 C 23.351562 20.957031 23.351562 20.832031 23.351562 20.703125 C 23.351562 20.632812 23.351562 20.5625 23.351562 20.488281 C 23.375 20.3125 23.375 20.3125 23.453125 20.195312 C 23.648438 20.070312 23.875 20.101562 24.097656 20.105469 Z M 24.097656 20.105469 "/>
<path style=" stroke:none;fill-rule:nonzero;fill:rgb(95.294118%,21.568628%,13.333334%);fill-opacity:1;" d="M 2.921875 0.671875 C 2.980469 0.671875 2.980469 0.671875 3.042969 0.671875 C 3.175781 0.671875 3.308594 0.671875 3.445312 0.671875 C 3.539062 0.671875 3.636719 0.671875 3.734375 0.671875 C 4.003906 0.667969 4.269531 0.671875 4.535156 0.671875 C 4.824219 0.671875 5.109375 0.667969 5.398438 0.667969 C 5.960938 0.667969 6.527344 0.667969 7.089844 0.667969 C 7.546875 0.667969 8.007812 0.667969 8.464844 0.667969 C 8.5625 0.667969 8.5625 0.667969 8.660156 0.667969 C 8.792969 0.667969 8.925781 0.667969 9.058594 0.667969 C 10.300781 0.667969 11.542969 0.667969 12.785156 0.667969 C 13.921875 0.667969 15.058594 0.667969 16.195312 0.667969 C 17.359375 0.664062 18.527344 0.664062 19.695312 0.664062 C 20.347656 0.664062 21.003906 0.664062 21.660156 0.664062 C 22.21875 0.664062 22.773438 0.664062 23.332031 0.664062 C 23.617188 0.664062 23.902344 0.664062 24.1875 0.664062 C 24.445312 0.664062 24.707031 0.664062 24.96875 0.664062 C 25.0625 0.664062 25.15625 0.664062 25.25 0.664062 C 25.992188 0.660156 26.539062 0.765625 27.125 1.25 C 27.347656 1.488281 27.542969 1.722656 27.5625 2.0625 C 27.523438 2.019531 27.484375 1.976562 27.441406 1.929688 C 26.839844 1.335938 26.144531 1.097656 25.308594 1.09375 C 25.222656 1.09375 25.132812 1.09375 25.046875 1.09375 C 24.949219 1.09375 24.855469 1.09375 24.757812 1.09375 C 24.5 1.09375 24.238281 1.09375 23.980469 1.09375 C 23.699219 1.097656 23.414062 1.09375 23.132812 1.09375 C 22.585938 1.09375 22.035156 1.097656 21.484375 1.097656 C 20.839844 1.097656 20.199219 1.097656 19.558594 1.097656 C 18.414062 1.097656 17.269531 1.101562 16.125 1.101562 C 15.015625 1.105469 13.90625 1.105469 12.796875 1.105469 C 12.691406 1.105469 12.691406 1.105469 12.589844 1.105469 C 12.3125 1.105469 12.039062 1.105469 11.761719 1.105469 C 10.703125 1.109375 9.644531 1.109375 8.585938 1.109375 C 8.269531 1.109375 7.949219 1.109375 7.628906 1.109375 C 6.957031 1.109375 6.285156 1.113281 5.613281 1.113281 C 5.335938 1.113281 5.058594 1.113281 4.78125 1.113281 C 4.523438 1.113281 4.269531 1.113281 4.015625 1.117188 C 3.925781 1.117188 3.832031 1.117188 3.742188 1.117188 C 2.75 1.117188 1.941406 1.171875 1.1875 1.875 C 1.144531 1.875 1.105469 1.875 1.0625 1.875 C 1.1875 1.386719 1.507812 1.171875 1.90625 0.894531 C 2.234375 0.722656 2.554688 0.671875 2.921875 0.671875 Z M 2.921875 0.671875 "/>
<path style=" stroke:none;fill-rule:nonzero;fill:rgb(68.627453%,68.627453%,68.627453%);fill-opacity:1;" d="M 0.6875 23.4375 C 0.78125 23.558594 0.871094 23.679688 0.953125 23.808594 C 1.253906 24.253906 1.660156 24.519531 2.179688 24.660156 C 2.453125 24.714844 2.734375 24.703125 3.015625 24.703125 C 3.125 24.703125 3.125 24.703125 3.238281 24.703125 C 4.511719 24.6875 5.78125 24.632812 7.050781 24.582031 C 7.273438 24.574219 7.5 24.566406 7.722656 24.558594 C 9.503906 24.488281 11.289062 24.417969 13.070312 24.332031 C 13.148438 24.328125 13.226562 24.324219 13.308594 24.320312 C 13.523438 24.308594 13.742188 24.300781 13.957031 24.289062 C 14.019531 24.285156 14.078125 24.28125 14.140625 24.277344 C 14.453125 24.261719 14.757812 24.238281 15.066406 24.199219 C 15.207031 24.183594 15.347656 24.179688 15.488281 24.179688 C 15.5625 24.183594 15.5625 24.183594 15.636719 24.183594 C 15.6875 24.183594 15.734375 24.183594 15.785156 24.183594 C 15.863281 24.183594 15.863281 24.183594 15.941406 24.183594 C 16.0625 24.183594 16.1875 24.1875 16.3125 24.1875 C 16.3125 24.476562 16.3125 24.765625 16.3125 25.0625 C 14.550781 25.066406 12.785156 25.070312 11.023438 25.070312 C 10.203125 25.074219 9.382812 25.074219 8.566406 25.078125 C 7.851562 25.078125 7.136719 25.078125 6.421875 25.082031 C 6.046875 25.082031 5.667969 25.082031 5.289062 25.082031 C 4.933594 25.082031 4.578125 25.085938 4.222656 25.082031 C 4.089844 25.082031 3.960938 25.085938 3.832031 25.085938 C 2.777344 25.089844 1.9375 25.039062 1.136719 24.285156 C 0.90625 24.042969 0.6875 23.785156 0.6875 23.4375 Z M 0.6875 23.4375 "/>
<path style=" stroke:none;fill-rule:nonzero;fill:rgb(83.529413%,82.745099%,82.745099%);fill-opacity:1;" d="M 28 2.5625 C 28.019531 2.5625 28.042969 2.5625 28.0625 2.5625 C 28.0625 7.015625 28.0625 11.472656 28.0625 16.0625 C 27.835938 16.0625 27.609375 16.0625 27.375 16.0625 C 27.371094 15.546875 27.390625 15.039062 27.425781 14.527344 C 27.4375 14.402344 27.445312 14.28125 27.453125 14.160156 C 27.464844 13.945312 27.480469 13.734375 27.496094 13.519531 C 27.617188 11.742188 27.695312 9.972656 27.722656 8.191406 C 27.722656 7.972656 27.726562 7.753906 27.730469 7.53125 C 27.738281 7.105469 27.742188 6.675781 27.75 6.25 C 27.875 6.21875 27.875 6.21875 28 6.1875 C 28 4.992188 28 3.796875 28 2.5625 Z M 28 2.5625 "/>
<path style=" stroke:none;fill-rule:nonzero;fill:rgb(26.274511%,45.882353%,80.000001%);fill-opacity:1;" d="M 16.25 8.1875 C 16.890625 8.1875 17.527344 8.1875 18.1875 8.1875 C 18.1875 8.828125 18.1875 9.464844 18.1875 10.125 C 17.546875 10.125 16.910156 10.125 16.25 10.125 C 16.25 9.484375 16.25 8.847656 16.25 8.1875 Z M 16.25 8.1875 "/>
<path style=" stroke:none;fill-rule:nonzero;fill:rgb(31.764707%,80.000001%,27.058825%);fill-opacity:1;" d="M 12.6875 16.9375 C 13.328125 16.9375 13.964844 16.9375 14.625 16.9375 C 14.625 17.578125 14.625 18.214844 14.625 18.875 C 14.316406 18.875 14.007812 18.878906 13.691406 18.878906 C 13.546875 18.878906 13.546875 18.878906 13.398438 18.878906 C 13.28125 18.882812 13.28125 18.882812 13.167969 18.882812 C 13.089844 18.882812 13.011719 18.882812 12.929688 18.882812 C 12.75 18.875 12.75 18.875 12.6875 18.8125 C 12.683594 18.675781 12.679688 18.535156 12.679688 18.394531 C 12.679688 18.320312 12.683594 18.246094 12.683594 18.164062 C 12.683594 18.070312 12.683594 17.972656 12.683594 17.871094 C 12.683594 17.5625 12.6875 17.253906 12.6875 16.9375 Z M 12.6875 16.9375 "/>
<path style=" stroke:none;fill-rule:nonzero;fill:rgb(31.764707%,80.000001%,27.058825%);fill-opacity:1;" d="M 9.25 16.9375 C 9.890625 16.9375 10.527344 16.9375 11.1875 16.9375 C 11.1875 17.578125 11.1875 18.214844 11.1875 18.875 C 10.878906 18.875 10.570312 18.878906 10.253906 18.878906 C 10.109375 18.878906 10.109375 18.878906 9.960938 18.878906 C 9.84375 18.882812 9.84375 18.882812 9.730469 18.882812 C 9.652344 18.882812 9.574219 18.882812 9.492188 18.882812 C 9.3125 18.875 9.3125 18.875 9.25 18.8125 C 9.246094 18.675781 9.242188 18.535156 9.242188 18.394531 C 9.242188 18.320312 9.246094 18.246094 9.246094 18.164062 C 9.246094 18.070312 9.246094 17.972656 9.246094 17.871094 C 9.246094 17.5625 9.25 17.253906 9.25 16.9375 Z M 9.25 16.9375 "/>
<path style=" stroke:none;fill-rule:nonzero;fill:rgb(31.764707%,80.000001%,27.058825%);fill-opacity:1;" d="M 5.8125 16.9375 C 6.453125 16.9375 7.089844 16.9375 7.75 16.9375 C 7.75 17.578125 7.75 18.214844 7.75 18.875 C 7.441406 18.875 7.132812 18.878906 6.816406 18.878906 C 6.671875 18.878906 6.671875 18.878906 6.523438 18.878906 C 6.40625 18.882812 6.40625 18.882812 6.292969 18.882812 C 6.214844 18.882812 6.136719 18.882812 6.054688 18.882812 C 5.875 18.875 5.875 18.875 5.8125 18.8125 C 5.808594 18.675781 5.804688 18.535156 5.804688 18.394531 C 5.804688 18.320312 5.808594 18.246094 5.808594 18.164062 C 5.808594 18.070312 5.808594 17.972656 5.808594 17.871094 C 5.808594 17.5625 5.8125 17.253906 5.8125 16.9375 Z M 5.8125 16.9375 "/>
<path style=" stroke:none;fill-rule:nonzero;fill:rgb(31.764707%,80.000001%,27.058825%);fill-opacity:1;" d="M 2.375 16.9375 C 3.015625 16.9375 3.652344 16.9375 4.3125 16.9375 C 4.3125 17.578125 4.3125 18.214844 4.3125 18.875 C 4.003906 18.875 3.695312 18.878906 3.378906 18.878906 C 3.234375 18.878906 3.234375 18.878906 3.085938 18.878906 C 2.96875 18.882812 2.96875 18.882812 2.855469 18.882812 C 2.777344 18.882812 2.699219 18.882812 2.617188 18.882812 C 2.4375 18.875 2.4375 18.875 2.375 18.8125 C 2.371094 18.675781 2.367188 18.535156 2.367188 18.394531 C 2.367188 18.320312 2.371094 18.246094 2.371094 18.164062 C 2.371094 18.070312 2.371094 17.972656 2.371094 17.871094 C 2.371094 17.5625 2.375 17.253906 2.375 16.9375 Z M 2.375 16.9375 "/>
<path style=" stroke:none;fill-rule:nonzero;fill:rgb(27.058825%,46.27451%,80.000001%);fill-opacity:1;" d="M 12.6875 19.875 C 13.328125 19.875 13.964844 19.875 14.625 19.875 C 14.625 20.492188 14.625 21.113281 14.625 21.75 C 13.984375 21.75 13.347656 21.75 12.6875 21.75 C 12.6875 21.132812 12.6875 20.511719 12.6875 19.875 Z M 12.6875 19.875 "/>
<path style=" stroke:none;fill-rule:nonzero;fill:rgb(27.058825%,46.27451%,80.000001%);fill-opacity:1;" d="M 9.25 19.875 C 9.890625 19.875 10.527344 19.875 11.1875 19.875 C 11.1875 20.492188 11.1875 21.113281 11.1875 21.75 C 10.546875 21.75 9.910156 21.75 9.25 21.75 C 9.25 21.132812 9.25 20.511719 9.25 19.875 Z M 9.25 19.875 "/>
<path style=" stroke:none;fill-rule:nonzero;fill:rgb(26.274511%,45.882353%,80.000001%);fill-opacity:1;" d="M 16.1875 14.0625 C 16.828125 14.0625 17.464844 14.0625 18.125 14.0625 C 18.125 14.679688 18.125 15.300781 18.125 15.9375 C 17.484375 15.9375 16.847656 15.9375 16.1875 15.9375 C 16.1875 15.320312 16.1875 14.699219 16.1875 14.0625 Z M 16.1875 14.0625 "/>
<path style=" stroke:none;fill-rule:nonzero;fill:rgb(100%,76.862746%,0%);fill-opacity:1;" d="M 23.1875 8.1875 C 23.804688 8.1875 24.425781 8.1875 25.0625 8.1875 C 25.0625 8.828125 25.0625 9.464844 25.0625 10.125 C 24.445312 10.125 23.824219 10.125 23.1875 10.125 C 23.1875 9.484375 23.1875 8.847656 23.1875 8.1875 Z M 23.1875 8.1875 "/>
<path style=" stroke:none;fill-rule:nonzero;fill:rgb(100%,76.862746%,0%);fill-opacity:1;" d="M 19.75 8.1875 C 20.367188 8.1875 20.988281 8.1875 21.625 8.1875 C 21.625 8.828125 21.625 9.464844 21.625 10.125 C 21.007812 10.125 20.386719 10.125 19.75 10.125 C 19.75 9.484375 19.75 8.847656 19.75 8.1875 Z M 19.75 8.1875 "/>
<path style=" stroke:none;fill-rule:nonzero;fill:rgb(26.274511%,45.882353%,80.000001%);fill-opacity:1;" d="M 12.75 8.1875 C 13.367188 8.1875 13.988281 8.1875 14.625 8.1875 C 14.625 8.828125 14.625 9.464844 14.625 10.125 C 14.007812 10.125 13.386719 10.125 12.75 10.125 C 12.75 9.484375 12.75 8.847656 12.75 8.1875 Z M 12.75 8.1875 "/>
<path style=" stroke:none;fill-rule:nonzero;fill:rgb(26.274511%,45.882353%,80.000001%);fill-opacity:1;" d="M 9.3125 8.1875 C 9.929688 8.1875 10.550781 8.1875 11.1875 8.1875 C 11.1875 8.828125 11.1875 9.464844 11.1875 10.125 C 10.570312 10.125 9.949219 10.125 9.3125 10.125 C 9.3125 9.484375 9.3125 8.847656 9.3125 8.1875 Z M 9.3125 8.1875 "/>
<path style=" stroke:none;fill-rule:nonzero;fill:rgb(100%,30.19608%,30.19608%);fill-opacity:1;" d="M 5.875 19.875 C 6.492188 19.875 7.113281 19.875 7.75 19.875 C 7.75 20.492188 7.75 21.113281 7.75 21.75 C 7.132812 21.75 6.511719 21.75 5.875 21.75 C 5.875 21.132812 5.875 20.511719 5.875 19.875 Z M 5.875 19.875 "/>
<path style=" stroke:none;fill-rule:nonzero;fill:rgb(100%,30.19608%,30.19608%);fill-opacity:1;" d="M 2.4375 19.875 C 3.054688 19.875 3.675781 19.875 4.3125 19.875 C 4.3125 20.492188 4.3125 21.113281 4.3125 21.75 C 3.695312 21.75 3.074219 21.75 2.4375 21.75 C 2.4375 21.132812 2.4375 20.511719 2.4375 19.875 Z M 2.4375 19.875 "/>
<path style=" stroke:none;fill-rule:nonzero;fill:rgb(100%,76.862746%,0%);fill-opacity:1;" d="M 23.1875 14.0625 C 23.804688 14.0625 24.425781 14.0625 25.0625 14.0625 C 25.0625 14.679688 25.0625 15.300781 25.0625 15.9375 C 24.445312 15.9375 23.824219 15.9375 23.1875 15.9375 C 23.1875 15.320312 23.1875 14.699219 23.1875 14.0625 Z M 23.1875 14.0625 "/>
<path style=" stroke:none;fill-rule:nonzero;fill:rgb(100%,76.862746%,0%);fill-opacity:1;" d="M 19.75 14.0625 C 20.367188 14.0625 20.988281 14.0625 21.625 14.0625 C 21.625 14.679688 21.625 15.300781 21.625 15.9375 C 21.007812 15.9375 20.386719 15.9375 19.75 15.9375 C 19.75 15.320312 19.75 14.699219 19.75 14.0625 Z M 19.75 14.0625 "/>
<path style=" stroke:none;fill-rule:nonzero;fill:rgb(26.274511%,45.882353%,80.000001%);fill-opacity:1;" d="M 12.75 14.0625 C 13.367188 14.0625 13.988281 14.0625 14.625 14.0625 C 14.625 14.679688 14.625 15.300781 14.625 15.9375 C 14.007812 15.9375 13.386719 15.9375 12.75 15.9375 C 12.75 15.320312 12.75 14.699219 12.75 14.0625 Z M 12.75 14.0625 "/>
<path style=" stroke:none;fill-rule:nonzero;fill:rgb(26.274511%,45.882353%,80.000001%);fill-opacity:1;" d="M 9.3125 14.0625 C 9.929688 14.0625 10.550781 14.0625 11.1875 14.0625 C 11.1875 14.679688 11.1875 15.300781 11.1875 15.9375 C 10.570312 15.9375 9.949219 15.9375 9.3125 15.9375 C 9.3125 15.320312 9.3125 14.699219 9.3125 14.0625 Z M 9.3125 14.0625 "/>
<path style=" stroke:none;fill-rule:nonzero;fill:rgb(26.274511%,45.882353%,80.000001%);fill-opacity:1;" d="M 5.875 14.0625 C 6.492188 14.0625 7.113281 14.0625 7.75 14.0625 C 7.75 14.679688 7.75 15.300781 7.75 15.9375 C 7.132812 15.9375 6.511719 15.9375 5.875 15.9375 C 5.875 15.320312 5.875 14.699219 5.875 14.0625 Z M 5.875 14.0625 "/>
<path style=" stroke:none;fill-rule:nonzero;fill:rgb(26.274511%,45.882353%,80.000001%);fill-opacity:1;" d="M 2.4375 14.0625 C 3.054688 14.0625 3.675781 14.0625 4.3125 14.0625 C 4.3125 14.679688 4.3125 15.300781 4.3125 15.9375 C 3.695312 15.9375 3.074219 15.9375 2.4375 15.9375 C 2.4375 15.320312 2.4375 14.699219 2.4375 14.0625 Z M 2.4375 14.0625 "/>
<path style=" stroke:none;fill-rule:nonzero;fill:rgb(100%,76.862746%,0%);fill-opacity:1;" d="M 23.1875 11.125 C 23.804688 11.125 24.425781 11.125 25.0625 11.125 C 25.0625 11.742188 25.0625 12.363281 25.0625 13 C 24.445312 13 23.824219 13 23.1875 13 C 23.1875 12.382812 23.1875 11.761719 23.1875 11.125 Z M 23.1875 11.125 "/>
<path style=" stroke:none;fill-rule:nonzero;fill:rgb(100%,76.862746%,0%);fill-opacity:1;" d="M 19.75 11.125 C 20.367188 11.125 20.988281 11.125 21.625 11.125 C 21.625 11.742188 21.625 12.363281 21.625 13 C 21.007812 13 20.386719 13 19.75 13 C 19.75 12.382812 19.75 11.761719 19.75 11.125 Z M 19.75 11.125 "/>
<path style=" stroke:none;fill-rule:nonzero;fill:rgb(30.980393%,80.000001%,26.274511%);fill-opacity:1;" d="M 16.3125 11.125 C 16.929688 11.125 17.550781 11.125 18.1875 11.125 C 18.1875 11.742188 18.1875 12.363281 18.1875 13 C 17.570312 13 16.949219 13 16.3125 13 C 16.3125 12.382812 16.3125 11.761719 16.3125 11.125 Z M 16.3125 11.125 "/>
<path style=" stroke:none;fill-rule:nonzero;fill:rgb(30.980393%,80.000001%,26.274511%);fill-opacity:1;" d="M 12.75 11.125 C 13.367188 11.125 13.988281 11.125 14.625 11.125 C 14.625 11.742188 14.625 12.363281 14.625 13 C 14.007812 13 13.386719 13 12.75 13 C 12.75 12.382812 12.75 11.761719 12.75 11.125 Z M 12.75 11.125 "/>
<path style=" stroke:none;fill-rule:nonzero;fill:rgb(30.980393%,80.000001%,26.274511%);fill-opacity:1;" d="M 9.3125 11.125 C 9.929688 11.125 10.550781 11.125 11.1875 11.125 C 11.1875 11.742188 11.1875 12.363281 11.1875 13 C 10.570312 13 9.949219 13 9.3125 13 C 9.3125 12.382812 9.3125 11.761719 9.3125 11.125 Z M 9.3125 11.125 "/>
<path style=" stroke:none;fill-rule:nonzero;fill:rgb(30.980393%,80.000001%,26.274511%);fill-opacity:1;" d="M 5.875 11.125 C 6.492188 11.125 7.113281 11.125 7.75 11.125 C 7.75 11.742188 7.75 12.363281 7.75 13 C 7.132812 13 6.511719 13 5.875 13 C 5.875 12.382812 5.875 11.761719 5.875 11.125 Z M 5.875 11.125 "/>
<path style=" stroke:none;fill-rule:nonzero;fill:rgb(30.980393%,80.000001%,26.274511%);fill-opacity:1;" d="M 2.4375 11.125 C 3.054688 11.125 3.675781 11.125 4.3125 11.125 C 4.3125 11.742188 4.3125 12.363281 4.3125 13 C 3.695312 13 3.074219 13 2.4375 13 C 2.4375 12.382812 2.4375 11.761719 2.4375 11.125 Z M 2.4375 11.125 "/>
<path style=" stroke:none;fill-rule:nonzero;fill:rgb(98.823529%,95.686275%,95.294118%);fill-opacity:1;" d="M 5.214844 3.113281 C 5.375 3.125 5.375 3.125 5.5 3.25 C 5.539062 3.425781 5.539062 3.425781 5.570312 3.632812 C 5.582031 3.703125 5.589844 3.769531 5.601562 3.839844 C 5.609375 3.894531 5.617188 3.945312 5.625 4 C 5.640625 3.949219 5.65625 3.894531 5.675781 3.839844 C 5.699219 3.773438 5.71875 3.703125 5.742188 3.632812 C 5.765625 3.566406 5.785156 3.496094 5.808594 3.425781 C 5.875 3.25 5.875 3.25 6 3.125 C 6.15625 3.105469 6.15625 3.105469 6.3125 3.125 C 6.4375 3.3125 6.46875 3.417969 6.507812 3.636719 C 6.519531 3.691406 6.527344 3.75 6.539062 3.808594 C 6.546875 3.851562 6.554688 3.894531 6.5625 3.9375 C 6.574219 3.898438 6.585938 3.863281 6.597656 3.824219 C 6.617188 3.773438 6.632812 3.722656 6.648438 3.671875 C 6.671875 3.597656 6.671875 3.597656 6.695312 3.523438 C 6.746094 3.382812 6.804688 3.253906 6.875 3.125 C 7.023438 3.117188 7.023438 3.117188 7.1875 3.125 C 7.230469 3.167969 7.269531 3.207031 7.3125 3.25 C 7.289062 3.585938 7.199219 3.902344 7.105469 4.226562 C 7.09375 4.273438 7.082031 4.320312 7.066406 4.367188 C 6.984375 4.648438 6.890625 4.84375 6.6875 5.0625 C 6.511719 5.0625 6.511719 5.0625 6.3125 5 C 6.160156 4.757812 6.125 4.53125 6.125 4.25 C 6.082031 4.25 6.042969 4.25 6 4.25 C 5.988281 4.292969 5.976562 4.335938 5.964844 4.378906 C 5.949219 4.4375 5.933594 4.492188 5.917969 4.550781 C 5.894531 4.632812 5.894531 4.632812 5.871094 4.71875 C 5.808594 4.882812 5.765625 4.960938 5.625 5.0625 C 5.542969 5.0625 5.460938 5.0625 5.375 5.0625 C 5.042969 4.476562 4.945312 3.859375 5 3.1875 C 5.0625 3.125 5.0625 3.125 5.214844 3.113281 Z M 5.214844 3.113281 "/>
<path style=" stroke:none;fill-rule:nonzero;fill:rgb(99.215686%,96.078432%,95.686275%);fill-opacity:1;" d="M 16.5 2.25 C 16.625 2.375 16.589844 2.613281 16.597656 2.785156 C 16.601562 2.828125 16.601562 2.875 16.605469 2.917969 C 16.613281 3.03125 16.617188 3.140625 16.625 3.25 C 16.660156 3.230469 16.695312 3.210938 16.734375 3.1875 C 16.949219 3.09375 17.144531 3.09375 17.375 3.125 C 17.578125 3.234375 17.613281 3.28125 17.6875 3.5 C 17.71875 3.738281 17.738281 3.980469 17.761719 4.222656 C 17.769531 4.289062 17.773438 4.355469 17.78125 4.425781 C 17.789062 4.488281 17.792969 4.550781 17.800781 4.617188 C 17.808594 4.703125 17.808594 4.703125 17.816406 4.792969 C 17.8125 4.9375 17.8125 4.9375 17.6875 5.0625 C 17.53125 5.078125 17.53125 5.078125 17.375 5.0625 C 17.171875 4.859375 17.1875 4.65625 17.179688 4.375 C 17.183594 4.285156 17.183594 4.195312 17.183594 4.105469 C 17.183594 4.058594 17.183594 4.011719 17.183594 3.964844 C 17.183594 3.851562 17.1875 3.738281 17.1875 3.625 C 16.847656 3.777344 16.847656 3.777344 16.625 4.0625 C 16.59375 4.261719 16.59375 4.261719 16.589844 4.476562 C 16.574219 4.863281 16.574219 4.863281 16.4375 5 C 16.3125 4.980469 16.191406 4.957031 16.0625 4.9375 C 16.0625 4.050781 16.0625 3.164062 16.0625 2.25 C 16.230469 2.167969 16.320312 2.203125 16.5 2.25 Z M 16.5 2.25 "/>
<path style=" stroke:none;fill-rule:nonzero;fill:rgb(98.823529%,95.686275%,95.686275%);fill-opacity:1;" d="M 11.4375 2.25 C 11.539062 2.351562 11.515625 2.464844 11.519531 2.605469 C 11.523438 2.695312 11.523438 2.695312 11.527344 2.785156 C 11.53125 2.847656 11.53125 2.910156 11.535156 2.972656 C 11.539062 3.035156 11.539062 3.097656 11.542969 3.160156 C 11.550781 3.316406 11.554688 3.46875 11.5625 3.625 C 11.597656 3.585938 11.636719 3.546875 11.671875 3.503906 C 11.746094 3.425781 11.746094 3.425781 11.820312 3.347656 C 11.867188 3.296875 11.917969 3.246094 11.964844 3.191406 C 12.148438 3.042969 12.265625 3.007812 12.5 3 C 12.625 3.125 12.625 3.125 12.628906 3.261719 C 12.527344 3.527344 12.332031 3.6875 12.125 3.875 C 12.160156 3.921875 12.195312 3.96875 12.230469 4.015625 C 12.277344 4.074219 12.324219 4.136719 12.371094 4.199219 C 12.417969 4.257812 12.460938 4.320312 12.507812 4.382812 C 12.621094 4.558594 12.675781 4.667969 12.6875 4.875 C 12.5625 5 12.5625 5 12.414062 5.03125 C 12.25 5 12.25 5 12.117188 4.851562 C 12.074219 4.785156 12.035156 4.722656 11.992188 4.65625 C 11.871094 4.464844 11.871094 4.464844 11.75 4.3125 C 11.6875 4.3125 11.625 4.3125 11.5625 4.3125 C 11.558594 4.371094 11.558594 4.371094 11.554688 4.429688 C 11.546875 4.480469 11.542969 4.535156 11.539062 4.585938 C 11.535156 4.636719 11.53125 4.6875 11.527344 4.738281 C 11.5 4.875 11.5 4.875 11.375 5 C 11.21875 5.015625 11.21875 5.015625 11.0625 5 C 10.9375 4.875 10.9375 4.875 10.925781 4.761719 C 10.925781 4.714844 10.925781 4.667969 10.929688 4.621094 C 10.929688 4.566406 10.929688 4.515625 10.933594 4.460938 C 10.933594 4.402344 10.9375 4.347656 10.9375 4.289062 C 10.941406 4.230469 10.941406 4.171875 10.945312 4.113281 C 10.949219 3.925781 10.953125 3.742188 10.960938 3.554688 C 10.964844 3.429688 10.96875 3.304688 10.972656 3.175781 C 10.980469 2.867188 10.988281 2.558594 11 2.25 C 11.167969 2.167969 11.257812 2.203125 11.4375 2.25 Z M 11.4375 2.25 "/>
<path style=" stroke:none;fill-rule:nonzero;fill:rgb(99.215686%,97.254902%,96.862745%);fill-opacity:1;" d="M 8.5625 3.125 C 8.785156 3.261719 8.90625 3.382812 9 3.625 C 9.039062 4.035156 9.074219 4.472656 8.8125 4.8125 C 8.570312 5.027344 8.378906 5.105469 8.058594 5.085938 C 7.773438 5.03125 7.609375 4.878906 7.445312 4.648438 C 7.324219 4.289062 7.324219 3.960938 7.449219 3.601562 C 7.726562 3.199219 8.078125 3.054688 8.5625 3.125 Z M 8.5625 3.125 "/>
<path style=" stroke:none;fill-rule:nonzero;fill:rgb(99.215686%,97.254902%,96.862745%);fill-opacity:1;" d="M 20.4375 2.1875 C 20.5625 2.3125 20.5625 2.3125 20.570312 2.464844 C 20.5 2.625 20.5 2.625 20.386719 2.675781 C 20.296875 2.703125 20.207031 2.734375 20.117188 2.761719 C 19.980469 2.808594 19.980469 2.808594 19.90625 2.980469 C 19.894531 3.027344 19.886719 3.074219 19.875 3.125 C 19.914062 3.125 19.953125 3.125 19.996094 3.121094 C 20.046875 3.121094 20.097656 3.121094 20.152344 3.121094 C 20.203125 3.121094 20.253906 3.121094 20.308594 3.117188 C 20.4375 3.125 20.4375 3.125 20.5 3.1875 C 20.515625 3.339844 20.515625 3.339844 20.5 3.5 C 20.273438 3.652344 20.144531 3.636719 19.875 3.625 C 19.875 3.679688 19.875 3.679688 19.878906 3.734375 C 19.882812 3.898438 19.882812 4.066406 19.886719 4.230469 C 19.890625 4.316406 19.890625 4.316406 19.890625 4.402344 C 19.894531 4.71875 19.894531 4.929688 19.6875 5.1875 C 19.585938 5.167969 19.480469 5.144531 19.375 5.125 C 19.316406 4.933594 19.308594 4.773438 19.320312 4.578125 C 19.324219 4.523438 19.324219 4.464844 19.328125 4.410156 C 19.332031 4.351562 19.335938 4.292969 19.339844 4.234375 C 19.34375 4.148438 19.34375 4.148438 19.351562 4.058594 C 19.359375 3.914062 19.367188 3.769531 19.375 3.625 C 19.3125 3.625 19.253906 3.628906 19.191406 3.628906 C 19 3.625 19 3.625 18.9375 3.5625 C 18.925781 3.410156 18.925781 3.410156 18.9375 3.25 C 19.0625 3.125 19.0625 3.125 19.226562 3.117188 C 19.277344 3.121094 19.324219 3.121094 19.375 3.125 C 19.378906 3.050781 19.382812 2.976562 19.386719 2.898438 C 19.421875 2.597656 19.535156 2.460938 19.75 2.25 C 19.996094 2.167969 20.179688 2.175781 20.4375 2.1875 Z M 20.4375 2.1875 "/>
<path style=" stroke:none;fill-rule:nonzero;fill:rgb(99.215686%,97.254902%,96.862745%);fill-opacity:1;" d="M 23.320312 3.113281 C 23.386719 3.113281 23.453125 3.113281 23.519531 3.109375 C 23.6875 3.125 23.6875 3.125 23.8125 3.25 C 23.832031 3.582031 23.832031 3.582031 23.75 3.75 C 23.644531 3.753906 23.542969 3.753906 23.4375 3.75 C 23.417969 3.730469 23.394531 3.707031 23.375 3.6875 C 23.230469 3.683594 23.082031 3.683594 22.9375 3.6875 C 23.140625 3.847656 23.355469 3.980469 23.574219 4.113281 C 23.6875 4.1875 23.6875 4.1875 23.8125 4.3125 C 23.839844 4.523438 23.839844 4.523438 23.8125 4.75 C 23.582031 4.988281 23.371094 5.070312 23.042969 5.078125 C 22.761719 5.074219 22.519531 5.019531 22.3125 4.8125 C 22.304688 4.65625 22.304688 4.65625 22.3125 4.5 C 22.332031 4.480469 22.355469 4.457031 22.375 4.4375 C 22.523438 4.441406 22.667969 4.453125 22.816406 4.464844 C 22.898438 4.472656 22.976562 4.476562 23.0625 4.484375 C 23.15625 4.492188 23.15625 4.492188 23.25 4.5 C 23.25 4.457031 23.25 4.417969 23.25 4.375 C 23.199219 4.351562 23.144531 4.324219 23.089844 4.300781 C 23.023438 4.265625 22.953125 4.234375 22.882812 4.199219 C 22.816406 4.167969 22.746094 4.132812 22.675781 4.101562 C 22.5 4 22.5 4 22.375 3.8125 C 22.390625 3.425781 22.390625 3.425781 22.550781 3.257812 C 22.804688 3.128906 23.035156 3.113281 23.320312 3.113281 Z M 23.320312 3.113281 "/>
<path style=" stroke:none;fill-rule:nonzero;fill:rgb(99.215686%,97.254902%,96.862745%);fill-opacity:1;" d="M 15.257812 3.113281 C 15.324219 3.113281 15.390625 3.113281 15.457031 3.109375 C 15.625 3.125 15.625 3.125 15.75 3.25 C 15.769531 3.582031 15.769531 3.582031 15.6875 3.75 C 15.582031 3.753906 15.480469 3.753906 15.375 3.75 C 15.355469 3.730469 15.332031 3.707031 15.3125 3.6875 C 15.167969 3.683594 15.019531 3.683594 14.875 3.6875 C 15.078125 3.847656 15.292969 3.980469 15.511719 4.113281 C 15.625 4.1875 15.625 4.1875 15.75 4.3125 C 15.777344 4.523438 15.777344 4.523438 15.75 4.75 C 15.519531 4.988281 15.308594 5.070312 14.980469 5.078125 C 14.699219 5.074219 14.457031 5.019531 14.25 4.8125 C 14.242188 4.65625 14.242188 4.65625 14.25 4.5 C 14.269531 4.480469 14.292969 4.457031 14.3125 4.4375 C 14.460938 4.441406 14.605469 4.453125 14.753906 4.464844 C 14.835938 4.472656 14.914062 4.476562 15 4.484375 C 15.09375 4.492188 15.09375 4.492188 15.1875 4.5 C 15.1875 4.457031 15.1875 4.417969 15.1875 4.375 C 15.136719 4.351562 15.082031 4.324219 15.027344 4.300781 C 14.960938 4.265625 14.890625 4.234375 14.820312 4.199219 C 14.753906 4.167969 14.683594 4.132812 14.613281 4.101562 C 14.4375 4 14.4375 4 14.3125 3.8125 C 14.328125 3.425781 14.328125 3.425781 14.488281 3.257812 C 14.742188 3.128906 14.972656 3.113281 15.257812 3.113281 Z M 15.257812 3.113281 "/>
<path style=" stroke:none;fill-rule:nonzero;fill:rgb(99.215686%,96.470588%,96.078432%);fill-opacity:1;" d="M 21.40625 2.542969 C 21.484375 2.550781 21.484375 2.550781 21.5625 2.5625 C 21.707031 2.777344 21.699219 2.875 21.6875 3.125 C 21.757812 3.121094 21.828125 3.121094 21.898438 3.117188 C 22.125 3.125 22.125 3.125 22.25 3.25 C 22.214844 3.535156 22.214844 3.535156 22.125 3.625 C 21.980469 3.628906 21.832031 3.628906 21.6875 3.625 C 21.6875 3.664062 21.6875 3.703125 21.691406 3.742188 C 21.691406 3.921875 21.695312 4.097656 21.695312 4.273438 C 21.695312 4.335938 21.699219 4.398438 21.699219 4.460938 C 21.699219 4.519531 21.699219 4.578125 21.699219 4.636719 C 21.699219 4.691406 21.699219 4.746094 21.703125 4.804688 C 21.6875 4.9375 21.6875 4.9375 21.5625 5.0625 C 21.277344 5.027344 21.277344 5.027344 21.1875 4.9375 C 21.183594 4.839844 21.179688 4.742188 21.179688 4.644531 C 21.179688 4.585938 21.183594 4.527344 21.183594 4.464844 C 21.183594 4.402344 21.183594 4.339844 21.183594 4.277344 C 21.183594 4.214844 21.183594 4.152344 21.183594 4.089844 C 21.183594 3.933594 21.1875 3.78125 21.1875 3.625 C 21.101562 3.628906 21.101562 3.628906 21.011719 3.632812 C 20.8125 3.625 20.8125 3.625 20.625 3.5 C 20.679688 3.195312 20.679688 3.195312 20.75 3.125 C 20.875 3.121094 21 3.121094 21.125 3.125 C 21.121094 3.054688 21.121094 2.984375 21.117188 2.914062 C 21.125 2.65625 21.140625 2.574219 21.40625 2.542969 Z M 21.40625 2.542969 "/>
<path style=" stroke:none;fill-rule:nonzero;fill:rgb(99.215686%,96.078432%,96.078432%);fill-opacity:1;" d="M 9.375 3.125 C 9.5 3.140625 9.628906 3.152344 9.75 3.175781 C 9.886719 3.195312 9.886719 3.195312 10.0625 3.125 C 10.183594 3.113281 10.183594 3.113281 10.3125 3.109375 C 10.355469 3.109375 10.398438 3.105469 10.441406 3.105469 C 10.601562 3.132812 10.65625 3.179688 10.75 3.3125 C 10.773438 3.449219 10.773438 3.449219 10.769531 3.597656 C 10.769531 3.648438 10.769531 3.695312 10.769531 3.746094 C 10.75 3.875 10.75 3.875 10.625 4 C 10.429688 3.976562 10.429688 3.976562 10.25 3.9375 C 10.230469 3.855469 10.207031 3.773438 10.1875 3.6875 C 9.988281 3.796875 9.988281 3.796875 9.8125 3.9375 C 9.796875 4.148438 9.789062 4.363281 9.78125 4.574219 C 9.761719 4.925781 9.761719 4.925781 9.625 5.0625 C 9.429688 5.039062 9.429688 5.039062 9.25 5 C 9.246094 4.753906 9.246094 4.507812 9.242188 4.257812 C 9.242188 4.132812 9.242188 4.007812 9.238281 3.882812 C 9.238281 3.765625 9.238281 3.765625 9.238281 3.644531 C 9.238281 3.574219 9.238281 3.5 9.234375 3.425781 C 9.25 3.25 9.25 3.25 9.375 3.125 Z M 9.375 3.125 "/>
<path style=" stroke:none;fill-rule:nonzero;fill:rgb(33.725491%,78.823531%,29.803923%);fill-opacity:1;" d="M 16.125 16.9375 C 16.515625 16.9375 16.910156 16.9375 17.3125 16.9375 C 17.257812 17 17.207031 17.066406 17.152344 17.132812 C 16.765625 17.648438 16.472656 18.238281 16.375 18.875 C 16.292969 18.855469 16.210938 18.832031 16.125 18.8125 C 16.125 18.195312 16.125 17.574219 16.125 16.9375 Z M 16.125 16.9375 "/>
<path style=" stroke:none;fill-rule:nonzero;fill:rgb(99.215686%,96.470588%,96.078432%);fill-opacity:1;" d="M 18.410156 3.113281 C 18.5625 3.125 18.5625 3.125 18.625 3.1875 C 18.640625 3.46875 18.636719 3.746094 18.636719 4.027344 C 18.636719 4.105469 18.636719 4.1875 18.640625 4.265625 C 18.640625 4.378906 18.640625 4.378906 18.640625 4.496094 C 18.640625 4.566406 18.640625 4.636719 18.640625 4.707031 C 18.625 4.875 18.625 4.875 18.5 5 C 18.214844 4.964844 18.214844 4.964844 18.125 4.875 C 18.109375 4.605469 18.113281 4.335938 18.113281 4.066406 C 18.113281 3.953125 18.113281 3.953125 18.109375 3.835938 C 18.109375 3.761719 18.109375 3.691406 18.109375 3.617188 C 18.109375 3.546875 18.109375 3.480469 18.109375 3.414062 C 18.128906 3.1875 18.183594 3.128906 18.410156 3.113281 Z M 18.410156 3.113281 "/>
<path style=" stroke:none;fill-rule:nonzero;fill:rgb(82.352942%,12.941177%,8.235294%);fill-opacity:1;" d="M 8.125 3.625 C 8.421875 3.671875 8.421875 3.671875 8.5625 3.8125 C 8.605469 4.25 8.605469 4.25 8.457031 4.472656 C 8.3125 4.5625 8.3125 4.5625 8.148438 4.554688 C 8 4.5 8 4.5 7.875 4.375 C 7.84375 4.105469 7.847656 3.980469 8 3.753906 C 8.042969 3.710938 8.082031 3.667969 8.125 3.625 Z M 8.125 3.625 "/>
<path style=" stroke:none;fill-rule:nonzero;fill:rgb(98.823529%,95.294118%,95.294118%);fill-opacity:1;" d="M 18.464844 2.363281 C 18.625 2.375 18.625 2.375 18.75 2.5 C 18.714844 2.785156 18.714844 2.785156 18.625 2.875 C 18.472656 2.886719 18.472656 2.886719 18.3125 2.875 C 18.269531 2.832031 18.230469 2.792969 18.1875 2.75 C 18.234375 2.382812 18.234375 2.382812 18.464844 2.363281 Z M 18.464844 2.363281 "/>
<path style=" stroke:none;fill-rule:nonzero;fill:rgb(77.254903%,77.254903%,77.254903%);fill-opacity:1;" d="M 0.6875 23.4375 C 0.78125 23.558594 0.871094 23.683594 0.957031 23.808594 C 1.15625 24.09375 1.339844 24.265625 1.648438 24.425781 C 1.75 24.5 1.75 24.5 1.796875 24.632812 C 1.800781 24.671875 1.808594 24.710938 1.8125 24.75 C 1.363281 24.601562 1.019531 24.222656 0.777344 23.820312 C 0.6875 23.625 0.6875 23.625 0.6875 23.4375 Z M 0.6875 23.4375 "/>
</g>
</svg>
